<svg width="14" height="8" viewBox="0 0 14 8" fill="none" xmlns="http://www.w3.org/2000/svg">
<path fill-rule="evenodd" clip-rule="evenodd" d="M13.5543 2.43886C13.5179 2.37742 13.4479 2.34413 13.3773 2.35478C13.3067 2.3653 13.2495 2.41769 13.2327 2.48709C12.8487 3.98584 11.8718 5.34738 10.4043 6.1948C7.55753 7.83834 3.96112 6.92136 2.36216 4.15163C1.87097 3.30098 1.62704 2.37479 1.60573 1.45229L3.4161 2.60343V2.60355C3.45539 2.62938 3.50337 2.63831 3.54927 2.62852C3.59516 2.61861 3.63531 2.5907 3.6604 2.55104C3.68562 2.51139 3.69394 2.46328 3.68341 2.41751C3.67289 2.37173 3.64437 2.33207 3.60435 2.30747L1.52348 0.984348C1.48309 0.958645 1.43401 0.950567 1.38762 0.961949C1.34111 0.973332 1.30133 1.0032 1.27746 1.04457L0.0254645 3.21H0.0253421C0.00098517 3.2504 -0.00623606 3.29886 0.00551374 3.34452C0.0172635 3.39018 0.0468836 3.42922 0.0876424 3.45284C0.128523 3.47646 0.177115 3.48258 0.222524 3.46998C0.267933 3.45737 0.306367 3.42689 0.329131 3.38564L1.26914 1.75983C1.33315 2.63937 1.59006 3.51646 2.05812 4.32725C3.75443 7.26528 7.57284 8.23487 10.5796 6.49883C12.1299 5.60375 13.1656 4.16228 13.5726 2.57429V2.57417C13.5851 2.52839 13.5785 2.47956 13.5542 2.4388L13.5543 2.43886Z" fill=""/>
</svg>
