<svg width="14" height="7" viewBox="0 0 14 7" fill="none" xmlns="http://www.w3.org/2000/svg">
<path fill-rule="evenodd" clip-rule="evenodd" d="M13.9742 4.09235C13.9419 4.0396 13.8841 4.00778 13.8222 4.00863C13.7603 4.00949 13.7033 4.0429 13.6725 4.09663L12.7538 5.64336C12.6944 4.74841 12.4356 3.85649 11.9602 3.03311C10.2639 0.0950767 6.44546 -0.874512 3.43868 0.861529C1.89622 1.75209 0.861488 3.18464 0.452428 4.76539H0.45255C0.439821 4.8108 0.44594 4.85939 0.46944 4.90027C0.492941 4.94103 0.531863 4.97077 0.577516 4.98252C0.62317 4.99439 0.67164 4.98729 0.712032 4.96294C0.752424 4.9387 0.781308 4.89917 0.792202 4.85327C1.17823 3.36151 2.15387 2.00827 3.61417 1.1653C6.4609 -0.478245 10.0573 0.43886 11.6563 3.20847C12.1516 4.06636 12.397 5.00098 12.4151 5.93278L10.6224 4.76143C10.5835 4.73499 10.5355 4.72533 10.4893 4.73463C10.4432 4.74393 10.4027 4.77135 10.377 4.81076C10.3513 4.85017 10.3425 4.89815 10.3525 4.94417C10.3625 4.99019 10.3907 5.03022 10.4305 5.05519L12.4965 6.40523C12.5366 6.43142 12.5855 6.44011 12.6322 6.42922C12.6788 6.41845 12.7189 6.38907 12.7433 6.34794L13.9742 4.27576C14.0088 4.21945 14.0088 4.14858 13.9742 4.09228L13.9742 4.09235Z" fill=""/>
</svg>
